HIERARCHY
ROOT Hips
{
 OFFSET 0.000000 0.000000 0.000000
 CHANNELS 6 Xposition Yposition Zposition Yrotation Xrotation Zrotation
 JOINT Chest
 {
  OFFSET 0.000000 9.585900 0.002600
  CHANNELS 3 Yrotation Xrotation Zrotation
  JOINT Chest2
  {
   OFFSET 0.000000 9.601200 -0.005300
   CHANNELS 3 Yrotation Xrotation Zrotation
   JOINT Chest3
   {
    OFFSET 0.000000 9.561800 0.000000
    CHANNELS 3 Yrotation Xrotation Zrotation
    JOINT Chest4
    {
     OFFSET 0.000000 9.552100 0.000000
     CHANNELS 3 Yrotation Xrotation Zrotation
     JOINT Neck
     {
      OFFSET 0.000000 14.453000 0.000000
      CHANNELS 3 Yrotation Xrotation Zrotation
      JOINT Head
      {
       OFFSET 0.000000 8.936500 -0.011300
       CHANNELS 3 Yrotation Xrotation Zrotation
       End Site
       {
        OFFSET 0.000000 17.073600 -0.006000
       }
      }
     }
     JOINT RightCollar
     {
      OFFSET -2.921100 9.558500 0.000000
      CHANNELS 3 Yrotation Xrotation Zrotation
      JOINT RightShoulder
      {
       OFFSET -13.519700 0.000000 0.000000
       CHANNELS 3 Yrotation Xrotation Zrotation
       JOINT RightElbow
       {
        OFFSET 0.000000 -29.696600 0.000000
        CHANNELS 3 Yrotation Xrotation Zrotation
        JOINT RightWrist
        {
         OFFSET 0.000000 -24.004700 0.000000
         CHANNELS 3 Yrotation Xrotation Zrotation
         End Site
         {
          OFFSET 0.000000 -17.728500 0.000000
         }
        }
       }
      }
     }
     JOINT LeftCollar
     {
      OFFSET 2.921100 9.558500 0.000000
      CHANNELS 3 Yrotation Xrotation Zrotation
      JOINT LeftShoulder
      {
       OFFSET 13.519700 0.000000 0.000000
       CHANNELS 3 Yrotation Xrotation Zrotation
       JOINT LeftElbow
       {
        OFFSET 0.000000 -29.696600 0.000000
        CHANNELS 3 Yrotation Xrotation Zrotation
        JOINT LeftWrist
        {
         OFFSET 0.000000 -24.004700 0.000000
         CHANNELS 3 Yrotation Xrotation Zrotation
         End Site
         {
          OFFSET 0.000000 -17.728500 0.000000
         }
        }
       }
      }
     }
    }
   }
  }
 }
 JOINT RightHip
 {
  OFFSET -7.771700 -0.012900 -0.001300
  CHANNELS 3 Yrotation Xrotation Zrotation
  JOINT RightKnee
  {
   OFFSET 0.000000 -40.869800 0.001200
   CHANNELS 3 Yrotation Xrotation Zrotation
   JOINT RightAnkle
   {
    OFFSET 0.000000 -39.717900 0.002100
    CHANNELS 3 Yrotation Xrotation Zrotation
    JOINT RightToe
    {
     OFFSET 0.000000 -4.965400 11.033500
     CHANNELS 3 Yrotation Xrotation Zrotation
     End Site
     {
      OFFSET 0.000000 -1.423100 5.872300
     }
    }
   }
  }
 }
 JOINT LeftHip
 {
  OFFSET 7.771700 -0.012900 -0.001300
  CHANNELS 3 Yrotation Xrotation Zrotation
  JOINT LeftKnee
  {
   OFFSET 0.000000 -40.869800 0.001200
   CHANNELS 3 Yrotation Xrotation Zrotation
   JOINT LeftAnkle
   {
    OFFSET 0.000000 -39.717900 0.002100
    CHANNELS 3 Yrotation Xrotation Zrotation
    JOINT LeftToe
    {
     OFFSET 0.000000 -4.965400 11.033500
     CHANNELS 3 Yrotation Xrotation Zrotation
     End Site
     {
      OFFSET 0.000000 -1.423100 5.872300
     }
    }
   }
  }
 }
}
MOTION
Frames: 9
Frame Time: 0.008333
-16.847825 55.340612 14.301897 -177.988011 -16.488785 -1.926371 0.092672 15.766066 -0.124846 0.025922 1.534891 0.017063 0.045697 2.580478 0.032983 0.264153 14.100709 0.204118 2.199717 15.172158 3.280696 1.578663 -9.733161 2.975299 1.793629 0.322936 2.816579 2.919881 -5.083011 -9.329478 -87.199171 -66.631300 118.241444 -12.804255 -16.578507 -6.466445 -6.182676 -1.515803 1.133132 0.084760 -12.887519 10.382985 65.958878 -60.998138 -109.987201 4.815131 -17.942426 6.350541 -1.050405 -58.406292 11.661665 -96.785539 87.822406 -101.263994 -11.432582 -23.278634 14.146014 0.086450 -0.034137 -0.126388 10.629697 -54.827883 -6.645515 110.663836 77.203454 108.066527 -7.503505 -23.695766 2.025526 0.026562 0.312972 0.005494
-16.847953 55.341217 14.303827 -177.993439 -16.518182 -1.932993 0.097270 15.779190 -0.126359 0.025763 1.530294 0.013943 0.044889 2.574219 0.027817 0.265904 14.087410 0.184934 2.255056 15.171599 3.297007 1.625663 -9.752987 2.965157 1.796871 0.357942 2.848250 2.889460 -5.089158 -9.338364 -87.204443 -66.619547 118.267257 -12.782674 -16.618806 -6.489305 -6.170628 -1.488081 1.141202 0.080288 -12.897484 10.365992 65.940356 -61.014660 -109.980455 4.818428 -17.938647 6.348589 -1.057612 -58.376556 11.681258 -96.636951 87.810711 -101.109767 -11.481652 -23.272782 14.172666 0.097268 -0.047834 -0.074023 10.610406 -54.805374 -6.618924 110.672309 77.202047 108.072098 -7.505098 -23.687788 2.024836 0.025270 0.306814 0.007899
-16.849818 55.342116 14.305556 -178.000963 -16.547600 -1.928530 0.103845 15.803417 -0.131756 0.024414 1.516705 0.005581 0.045869 2.574498 0.026536 0.271790 14.100586 0.192926 2.274329 15.156177 3.292553 1.688842 -9.797658 2.944271 1.785174 0.351796 2.831556 2.870192 -5.082224 -9.325127 -87.228053 -66.613287 118.304724 -12.769254 -16.650413 -6.518572 -6.165833 -1.492395 1.120496 0.075060 -12.892002 10.367247 65.976896 -60.998479 -110.054380 4.801922 -17.926258 6.375840 -1.046577 -58.347708 11.675701 -96.581009 87.810048 -101.050033 -11.516241 -23.267677 14.184176 0.092179 -0.054998 -0.049242 10.610881 -54.778698 -6.613583 110.658040 77.200620 108.049481 -7.495642 -23.673396 2.031318 0.014765 0.297935 0.003531
-16.851554 55.342899 14.308269 -177.998393 -16.568394 -1.927141 0.098413 15.805900 -0.144316 0.025917 1.517710 0.003557 0.047347 2.583135 0.031868 0.272872 14.091596 0.180556 2.297693 15.152085 3.303710 1.749269 -9.845395 2.926499 1.770640 0.347980 2.805074 2.871210 -5.063203 -9.281477 -87.294829 -66.617097 118.353953 -12.779992 -16.646486 -6.532532 -6.167256 -1.492795 1.109456 0.076366 -12.869130 10.366961 65.972546 -60.986037 -110.074334 4.797475 -17.931329 6.386503 -1.058647 -58.324273 11.690049 -96.437024 87.804389 -100.904174 -11.617833 -23.257595 14.242842 0.089763 -0.055373 -0.058810 10.596771 -54.759719 -6.605514 110.626716 77.198148 108.013716 -7.503190 -23.664667 2.031960 0.020494 0.296403 0.004875
-16.853134 55.343932 14.310434 -178.002112 -16.590089 -1.924463 0.101581 15.809169 -0.157514 0.026044 1.527606 0.008965 0.048085 2.583130 0.031122 0.272295 14.085565 0.166635 2.339569 15.124161 3.307581 1.783526 -9.876234 2.928634 1.766806 0.354615 2.803692 2.845934 -5.057923 -9.265444 -87.327631 -66.614775 118.370084 -12.799718 -16.629160 -6.509320 -6.166163 -1.478093 1.124478 0.079102 -12.864024 10.355111 65.953329 -60.959710 -110.070788 4.775026 -17.933733 6.394296 -1.063592 -58.301435 11.712882 -96.201492 87.790733 -100.655981 -11.768874 -23.237470 14.288688 0.066559 -0.056665 -0.055690 10.593197 -54.739234 -6.599202 110.617083 77.199024 107.999238 -7.500941 -23.660645 2.034407 0.025635 0.293062 0.006167
-16.855426 55.344443 14.314237 -177.995895 -16.598143 -1.919425 0.091416 15.800896 -0.176293 0.027461 1.536166 0.014125 0.046344 2.576429 0.024210 0.271326 14.088277 0.160612 2.400145 15.062907 3.304837 1.792460 -9.879782 2.947269 1.764926 0.360346 2.799122 2.826979 -5.045121 -9.245217 -87.335249 -66.614156 118.390306 -12.798708 -16.629500 -6.512149 -6.157954 -1.474828 1.121781 0.076565 -12.849412 10.357996 65.936763 -60.952729 -110.062442 4.815388 -17.935573 6.393646 -1.072526 -58.291062 11.710737 -96.084862 87.793417 -100.546279 -11.766684 -23.230939 14.298579 0.064178 -0.066717 -0.048849 10.593390 -54.730749 -6.607127 110.563315 77.195588 107.938188 -7.506633 -23.648706 2.041663 0.025737 0.291727 0.005853
-16.853702 55.345225 14.317073 -178.000450 -16.608177 -1.935007 0.103002 15.785397 -0.176540 0.028464 1.548166 0.023802 0.046970 2.577118 0.022919 0.274263 14.090256 0.154082 2.435252 15.019819 3.312363 1.812899 -9.903459 2.958512 1.753024 0.363193 2.794901 2.817296 -5.030175 -9.223186 -87.312891 -66.618204 118.354220 -12.798808 -16.623620 -6.503513 -6.164349 -1.484918 1.109179 0.077239 -12.812646 10.353540 65.887083 -60.926895 -110.029928 4.810626 -17.926971 6.401717 -1.111063 -58.276272 11.737394 -95.913289 87.804264 -100.398874 -11.589136 -23.231193 14.272298 0.080823 -0.088783 -0.042971 10.575757 -54.727175 -6.575995 110.552242 77.196886 107.929996 -7.512354 -23.643958 2.041073 0.031615 0.292027 0.007939
-16.852093 55.345901 14.319621 -178.008197 -16.615870 -1.948767 0.115693 15.780597 -0.170817 0.028874 1.536685 0.011972 0.048580 2.577141 0.020510 0.279748 14.103366 0.160531 2.452454 15.007907 3.329268 1.848903 -9.955092 2.960166 1.747238 0.363527 2.793449 2.811906 -5.006100 -9.202014 -87.240484 -66.634188 118.254858 -12.804522 -16.639300 -6.480810 -6.164869 -1.481431 1.119443 0.076778 -12.762080 10.288131 65.847416 -60.952124 -110.001611 4.788826 -17.918394 6.410818 -1.137655 -58.266009 11.757260 -95.756334 87.809121 -100.259222 -11.409018 -23.227505 14.240117 0.106907 -0.110572 -0.037995 10.563255 -54.724106 -6.548370 110.545207 77.198452 107.925952 -7.512511 -23.644882 2.035979 0.034299 0.295477 0.012778
-16.849948 55.346704 14.320833 -178.008602 -16.626858 -1.968056 0.122338 15.785086 -0.155904 0.030765 1.529609 0.007251 0.047818 2.580195 0.022173 0.287860 14.084691 0.135775 2.466834 15.013836 3.362947 1.875102 -10.000746 2.963214 1.738881 0.386501 2.819068 2.807897 -4.977894 -9.186729 -87.226683 -66.645748 118.230327 -12.800248 -16.634702 -6.507148 -6.171900 -1.451921 1.148522 0.074906 -12.735466 10.253980 65.810191 -60.954727 -109.970829 4.774250 -17.915531 6.416320 -1.177108 -58.252971 11.798962 -95.575400 87.804900 -100.082104 -11.328590 -23.211489 14.221759 0.123013 -0.131520 -0.038787 10.541080 -54.724415 -6.514139 110.567501 77.199636 107.953472 -7.513388 -23.633280 2.027538 0.043999 0.285920 0.019427
